# xmcd
#
# Track frame offsets: 
#        150
#        14130
#        29195
#        41287
#        57815
#        66362
#        79180
#        90222
#        102225
#        115950
#        132262
#        144410
#
# Disc length: 2118 seconds
#
# Revision: 0
# Processed by: cddbd v1.5.2PL0 Copyright (c) Steve Scherf et al.
# Submitted via: ExactAudioCopy v0.95b4
#
DISCID=a208440c
DTITLE=Eddie Low - The Best of Eddie Low
DYEAR=1996
DGENRE=Country
TTITLE0=I Can't Stop Loving You
TTITLE1=Maria
TTITLE2=A Stranger In My Place
TTITLE3=Bonnie, Please Don't Go
TTITLE4=It Doesn't Hurt Anymore
TTITLE5=Help Me Make It Through The Night
TTITLE6=Tumbleweed
TTITLE7=Five Little Fingers
TTITLE8=Scarlet Ribbons
TTITLE9=One Way Wind
TTITLE10=Wimoweh
TTITLE11=Crying Time
EXTD=
EXTT0=
EXTT1=
EXTT2=
EXTT3=
EXTT4=
EXTT5=
EXTT6=
EXTT7=
EXTT8=
EXTT9=
EXTT10=
EXTT11=
PLAYORDER=
